<svg xmlns="http://www.w3.org/2000/svg" xmlns:xlink="http://www.w3.org/1999/xlink" preserveAspectRatio="none" width="1024" height="1024" xmlns:v="https://vecta.io/nano"><defs><path fill="#000" stroke="none" d="M1009.8 512.1q0-206.2-145.75-351.95-145.8-145.8-351.95-145.8-206.2 0-351.95 145.8Q14.35 305.9 14.35 512.1q0 167.3 96 294.8 14.372 19.152 30.95 37.4 9.095 10.013 18.85 19.75Q264.3 968.2 399.3 997.9q53.95 11.9 112.8 11.9 58.7 0 112.5-11.75 135.15-29.75 239.45-134 9.784-9.802 18.9-19.9 16.57-18.199 31-37.3 95.85-127.5 95.85-294.75m-43.8 0q0 152.5-87.45 268.8-16.988 22.525-37.25 43.7-4.052 4.252-8.25 8.45-95.1 95.1-218.35 122.2Q565.6 966 512.1 966q-53.7 0-102.9-10.85-123.1-27.1-218.1-122.1-4.14-4.132-8.15-8.35-20.298-21.161-37.25-43.75-87.55-116.3-87.55-268.85 0-188.05 132.95-321 132.95-132.95 321-132.95 188 0 320.95 132.95Q966 324.05 966 512.1M538.4 387.25q-12.8-23.8-26.4-23.8-13.5 0-26.25 23.1-2.65 5.15-5.35 11.1-5.5 11.95-10.9 29.05-.3.75-.6 1.45-3.706 11.721-7.35 25.55 8.51-24.105 17.55-39.4.25-.3.45-.6 4.1-6.95 8.3-11.85 2.05-2.4 4.1-4.5 9.7-9.45 19.95-9.45 10.35 0 20.1 9.7 2.05 1.85 4.1 4.25 7.05 8.5 13.85 22.15 3.1 6.35 6.25 13.65 3.261 7.891 6.45 17-.352-1.325-.7-2.65-8.9-33.5-18.2-54.35-2.65-5.95-5.35-10.4M521.6 167.4q-4.85-3.15-9.65-3.15-4.8 0-9.6 3.15-6.7 4.3-13.15 14.7-15.1 24.05-27.45 77.2-18.55 79.25-31.3 164.1-29.7 197.05-33.9 334.45 8.3-.3 16.6-.55 1.4-.05 2.85-.05-.25-11.4-.2-23.4.3-122.55 28.65-310.8 10.5-70.3 25.9-135.9 10.25-44 22.7-63.95 5.35-8.6 10.95-12.2 3.95-2.6 7.95-2.6 4 0 7.95 2.6 5.55 3.6 10.9 12.2 12.5 19.95 22.8 63.95 15.3 65.6 25.85 135.9 28.25 187.5 28.6 309.75.05 12.55-.15 24.4 1.45.05 2.9.05 8.35.3 16.55.6-4.2-137.4-33.85-334.45-12.75-84.85-31.25-164.1-12.4-53.15-27.45-77.2-6.5-10.4-13.2-14.7M676 775.3q1.2.15 2.45.4 86.132 15.83 162.85 48.9 20.262-21.175 37.25-43.7-96-15.1-209.2-21.15-1.15-.05-2.3-.1-19.55-1.05-39.7-1.8-8.2-.3-16.55-.6-1.45 0-2.9-.05-46.5-1.45-95.65-1.45-49.5 0-96.25 1.5-1.45 0-2.85.05-8.3.25-16.6.55-33.95 1.3-66.4 3.35-15.05.95-29.8 2.05-82.25 6.3-154.65 17.7 16.952 22.589 37.25 43.75 50.54-21.768 105.2-36.25 15.6-4 31.55-7.45 34.3-7.6 70.2-12.25 3.19-.417 6.35-.8 5.621-.676 11.2-1.25 1.5-.15 3.05-.15 2.858-.321 5.7-.65.036.024.05 0 46.691-4.9 96-4.9 48.953 0 95.4 4.75.039.026.05 0 2.881.335 5.75.65 1.5.15 3.05.15 5.603.665 11.1 1.35 3.227.428 6.4.85 21.3 2.7 42 6.55z" id="A"/><path id="B" stroke="#000" stroke-width="1" stroke-linejoin="round" fill="none" d="M1009.8 512.1q0 167.25-95.85 294.75-14.43 19.101-30.975 37.325-9.141 10.073-18.925 19.875-104.3 104.25-239.45 134-53.8 11.75-112.5 11.75-58.85 0-112.8-11.9-135-29.7-239.15-133.85-9.755-9.737-18.85-19.75-16.578-18.248-30.95-37.4-96-127.5-96-294.8 0-206.2 145.8-351.95Q305.9 14.35 512.1 14.35q206.15 0 351.95 145.8Q1009.8 305.9 1009.8 512.1z"/><path id="C" stroke="#000" stroke-width="3" stroke-linejoin="round" stroke-linecap="round" fill="none" d="M182.95 824.725q50.54-21.793 105.2-36.275 15.6-4 31.55-7.45 34.3-7.6 70.2-12.25 3.19-.417 6.375-.8 5.596-.676 11.175-1.25 1.5-.15 3.05-.15 2.858-.321 5.725-.625.011-.001.025 0 46.691-4.925 96-4.925 48.953 0 95.425 4.775.014.001.025 0 2.881.31 5.75.625 1.5.15 3.05.15 5.603.665 11.125 1.375 3.202.403 6.375.825 21.3 2.7 42 6.55 1.2.15 2.45.4 86.132 15.83 162.875 48.9 20.237-21.175 37.225-43.7-96-15.1-209.2-21.15-1.15-.05-2.3-.1-19.55-1.05-39.7-1.8-8.2-.3-16.55-.6-1.45 0-2.9-.05-46.5-1.45-95.65-1.45-49.5 0-96.25 1.5-1.45 0-2.85.05-8.3.25-16.6.55-33.95 1.3-66.4 3.35-15.05.95-29.8 2.05-82.25 6.3-154.65 17.7 16.952 22.589 37.25 43.775 4.01 4.193 8.15 8.325 95 95 218.1 122.1-15.717-71.878-12.925-187.2m-250.575 13Q58.15 664.65 58.15 512.1q0-188.05 132.95-321 132.95-132.95 321-132.95 188 0 320.95 132.95Q966 324.05 966 512.1q0 152.5-87.45 268.8m-482-23.05q4.2-137.4 33.9-334.45 12.75-84.85 31.3-164.1 12.35-53.15 27.45-77.2 6.45-10.4 13.15-14.7 4.8-3.15 9.6-3.15 4.8 0 9.65 3.15 6.7 4.3 13.2 14.7 15.05 24.05 27.45 77.2 18.5 79.25 31.25 164.1 29.65 197.05 33.85 334.45m-211.35-.6q-.25-11.4-.2-23.4.3-122.55 28.65-310.8 10.5-70.3 25.9-135.9 10.25-44 22.7-63.95 5.35-8.6 10.95-12.2 3.95-2.6 7.95-2.6 4 0 7.95 2.6 5.55 3.6 10.9 12.2 12.5 19.95 22.8 63.95 15.3 65.6 25.85 135.9 28.25 187.5 28.6 309.75.05 12.55-.15 24.4m-45.25-302.525q-.352-1.35-.7-2.675-8.9-33.5-18.2-54.35-2.65-5.95-5.35-10.4-12.8-23.8-26.4-23.8-13.5 0-26.25 23.1-2.65 5.15-5.35 11.1-5.5 11.95-10.9 29.05-.3.75-.6 1.45-3.706 11.721-7.35 25.55 8.51-24.105 17.55-39.4.25-.3.45-.6 4.1-6.95 8.3-11.85 2.05-2.4 4.1-4.5 9.7-9.45 19.95-9.45 10.35 0 20.1 9.7 2.05 1.85 4.1 4.25 7.05 8.5 13.85 22.15 3.1 6.35 6.25 13.65 3.261 7.891 6.45 17.025 3.748 14.441 7.5 30.775 20.05 90.5 37.9 247.35m-146.5-279.1q-24.387 92.71-45.75 280.15m425.525 90.75q-4.077 4.252-8.275 8.45-95.1 95.1-218.35 122.2Q565.6 966 512.1 966q-53.7 0-102.9-10.85m218.425-187.225Q630.42 883.314 614.7 955.25m-7-189.475Q601.55 956.4 511.9 956.5q-89.6-.1-95.65-190.575"/></defs><use xlink:href="#A"/><use xlink:href="#B"/><use xlink:href="#C"/></svg>